<svg width="60" height="60" viewBox="0 0 60 60" fill="none" xmlns="http://www.w3.org/2000/svg">
<path d="M14 25H13.0001C12.4478 25 12.0001 25.4477 12.0001 26C12.0001 26.5523 12.4478 26.9999 13.0001 26.9999H14C14.5523 26.9999 15 26.5523 15 26C15 25.4477 14.5523 25 14 25Z" fill="#F6DB4B"/>
<path d="M20.0001 27H19.0001C18.4478 27 18.0002 27.4477 18.0002 28C18.0002 28.5523 18.4478 28.9999 19.0001 28.9999H20.0001C20.5524 28.9999 21.0001 28.5523 21.0001 28C21.0001 27.4477 20.5524 27 20.0001 27Z" fill="#F6DB4B"/>
<path d="M26 25H25.0001C24.4478 25 24.0001 25.4477 24.0001 26C24.0001 26.5523 24.4479 26.9999 25.0001 26.9999H26C26.5524 26.9999 27 26.5523 27 26C27 25.4477 26.5524 25 26 25Z" fill="#F6DB4B"/>
<path d="M59 58H54.3061L57.9811 34.043C58.0561 33.5309 57.9037 33.0115 57.5641 32.621C57.2214 32.2256 56.7234 31.9989 56.2002 32H55.3432C55.2252 32 55.1122 32.0181 54.9962 32.025V28.78C54.9956 27.7986 54.2014 27.0027 53.2202 27H50.0003V25C50.0003 24.4477 49.5526 24 49.0003 24H45V23.78C44.9982 22.9475 44.4203 22.2272 43.608 22.0451L44.8901 11H46.0001C46.5524 11 47 10.5523 47 10.0001V7.00008C47 5.34328 45.6568 4.00008 44 4.00008V3C44 1.3432 42.657 0 41 0H18C16.3431 0 15 1.34309 15 3V3.99996C13.3432 3.99996 12 5.34305 12 6.99996V9.99996C12 10.5523 12.4477 10.9999 13 10.9999H14.11L15.1569 19.9999H13C6.92777 20.0071 2.00707 24.9278 1.99992 31V31.9999C1.99992 33.1045 2.89535 34 3.99996 34H4.99992V37.142C3.12645 37.6116 1.86434 39.3633 2.01187 41.289C2.16246 42.9791 3.35813 44.3925 4.99992 44.8211V48H3.99996C2.89535 48 1.99992 48.8954 1.99992 50V53C1.99969 54.8831 2.7607 56.6864 4.10988 58.0001H0.999961C0.447656 58.0001 0 58.4477 0 59C0 59.5523 0.447656 60 0.999961 60H58.9999C59.5522 60 59.9999 59.5523 59.9999 59C59.9999 58.4477 59.5523 58 59 58ZM50 29H53V32.584C51.9717 33.117 51.1687 34.0013 50.737 35.076C50.5325 35.5795 50.286 36.0649 50 36.527V29V29ZM45 26H48V38V38.01V38.768C47.1091 39.4635 46.0896 39.9759 45 40.2759V26ZM17 3C17 2.4477 17.4478 2.00004 18 2.00004H41C41.5523 2.00004 42 2.4477 42 3V3.99996H17V3ZM14 9V6.99996C14 6.44766 14.4477 6 15 6H44C44.5523 6 45 6.44766 45 6.99996V9H14ZM40 24H43V40.6061C42.6689 40.6321 42.342 40.6671 42 40.6671C41.3292 40.6628 40.6602 40.6009 40 40.4821V24ZM39.78 22C39.1847 22.0004 38.629 22.2984 38.299 22.7939C36.415 21.0983 33.9976 20.1146 31.465 20.0129C31.3099 19.9999 31.155 19.9999 31 19.9999H17.17L16.123 10.9999H42.877L41.6 22H39.78V22ZM3.99996 32V31.0001C4.00605 26.032 8.03191 22.0062 13 22.0001H31C31.105 22.0001 31.209 22.0001 31.352 22.0091C33.2827 22.0838 35.137 22.7824 36.637 24.0001H34.7801C33.7972 24.0007 33.0006 24.7972 33.0001 25.7801V28.0001H29.7802C28.7973 28.0007 28.0007 28.7972 28.0002 29.78V32H3.99996V32ZM38 26V39.93C36.8564 39.4724 35.8309 38.7623 35 37.853V26H38ZM33 30V34.557C32.3643 33.392 31.2807 32.5368 30 32.1889V30H33ZM26.472 37H23.41C22.8814 37.0003 22.3745 37.21 22 37.583L16.9999 42.583L12 37.583C11.6255 37.21 11.1185 37.0003 10.59 37H6.99996V34H26.018C26.018 34.0189 26.018 34.0379 26.018 34.0569L26.472 37ZM26.781 39L27.39 43H19.413L23.413 39H26.781ZM27.7 45L28.748 51.842L28 52.586L24 48.5861C23.6261 48.212 23.119 48.0012 22.59 48.0001H6.99996V45H27.7ZM4.00699 41.145C3.95977 40.5654 4.17223 39.9947 4.58695 39.587C4.96043 39.2102 5.46938 38.9987 6 39H10.583L14.5829 43H6.17004C5.07949 43.0293 4.14434 42.2272 4.00699 41.145ZM9 57.998C6.2407 57.9947 4.00441 55.7592 3.99996 52.9999V49.9999H6H22.581L27.291 54.7099C27.6814 55.1003 28.3145 55.1003 28.705 54.7099L29.117 54.2979L29.685 57.9979H9V57.998ZM31.7089 58L28.0349 33.9998L28.6459 34C29.8478 33.9919 30.9356 34.7104 31.3999 35.8189C31.8395 36.9323 32.456 37.9673 33.2259 38.884C33.2613 38.9336 33.3015 38.9794 33.3459 39.021C35.5521 41.4525 38.7189 42.7867 41.9999 42.667C46.9999 42.667 50.8598 40.1671 52.5998 35.818C53.0634 34.7121 54.1478 33.9946 55.3468 34L55.9638 33.9998L52.2829 58H31.7089V58Z" fill="#F6DB4B"/>
<path d="M41.4999 45C39.2754 45 37.2699 46.34 36.4186 48.3953C35.5673 50.4505 36.0378 52.8162 37.6108 54.3892C39.1838 55.9622 41.5495 56.4327 43.6047 55.5814C45.66 54.7302 47 52.7246 47 50.5001C46.9966 47.4637 44.5361 45.0033 41.4999 45ZM41.4999 54C39.5669 54 37.9999 52.433 37.9999 50.5C37.9999 48.567 39.5669 46.9999 41.4999 46.9999C43.4329 46.9999 45 48.567 45 50.5C45 52.433 43.4329 54 41.4999 54Z" fill="#F6DB4B"/>
</svg>
