<svg width="60" height="60" viewBox="0 0 60 60" fill="none" xmlns="http://www.w3.org/2000/svg">
<g clip-path="url(#clip0)">
<path d="M31.8105 46.89C31.8105 44.4845 29.8531 42.5271 27.4475 42.5271C25.0415 42.5271 23.0846 44.4845 23.0846 46.89C23.0846 49.2956 25.042 51.2525 27.4475 51.2525C29.8531 51.2525 31.8105 49.2956 31.8105 46.89V46.89ZM24.8424 46.89C24.8424 45.4536 26.011 44.2849 27.4475 44.2849C28.884 44.2849 30.0526 45.4536 30.0526 46.89C30.0526 48.3265 28.884 49.4947 27.4475 49.4947C26.011 49.4947 24.8424 48.3265 24.8424 46.89Z" fill="#F6DB4B"/>
<path d="M16.5852 37.0029C14.1797 37.0029 12.2227 38.9599 12.2227 41.3654C12.2227 43.771 14.1797 45.7284 16.5852 45.7284C18.9912 45.7284 20.9482 43.771 20.9482 41.3654C20.9482 38.9599 18.9912 37.0029 16.5852 37.0029ZM16.5852 43.9706C15.1492 43.9706 13.9806 42.8019 13.9806 41.3654C13.9806 39.929 15.1492 38.7607 16.5852 38.7607C18.0217 38.7607 19.1904 39.929 19.1904 41.3654C19.1904 42.8019 18.0217 43.9706 16.5852 43.9706Z" fill="#F6DB4B"/>
<path d="M19.4522 19.0576C17.0462 19.0576 15.0893 21.015 15.0893 23.4206C15.0893 25.8261 17.0462 27.7835 19.4522 27.7835C21.8578 27.7835 23.8147 25.8261 23.8147 23.4206C23.8147 21.015 21.8578 19.0576 19.4522 19.0576ZM19.4522 26.0257C18.0157 26.0257 16.8471 24.857 16.8471 23.4206C16.8471 21.9841 18.0157 20.8154 19.4522 20.8154C20.8882 20.8154 22.0569 21.9841 22.0569 23.4206C22.0569 24.857 20.8887 26.0257 19.4522 26.0257Z" fill="#F6DB4B"/>
<path d="M31.1298 11.6154C31.1298 9.20984 29.1724 7.25244 26.7668 7.25244C24.3613 7.25244 22.4043 9.20984 22.4043 11.6154C22.4043 14.0209 24.3613 15.9783 26.7668 15.9783C29.1724 15.9783 31.1298 14.0209 31.1298 11.6154ZM24.1617 11.6154C24.1617 10.1789 25.3304 9.01025 26.7668 9.01025C28.2033 9.01025 29.3719 10.1789 29.3719 11.6154C29.3719 13.0518 28.2033 14.2205 26.7668 14.2205C25.3304 14.2205 24.1617 13.0518 24.1617 11.6154Z" fill="#F6DB4B"/>
<path d="M46.4333 15.9273C46.4333 14.4822 45.2577 13.3066 43.8126 13.3066C42.3674 13.3066 41.1914 14.4822 41.1914 15.9273C41.1914 17.3725 42.3674 18.548 43.8126 18.548C45.2577 18.548 46.4333 17.3725 46.4333 15.9273V15.9273ZM42.9492 15.9273C42.9492 15.4513 43.3365 15.0645 43.8126 15.0645C44.2886 15.0645 44.6754 15.4513 44.6754 15.9273C44.6754 16.4034 44.2886 16.7902 43.8126 16.7902C43.3365 16.7902 42.9492 16.4034 42.9492 15.9273Z" fill="#F6DB4B"/>
<path d="M38.2063 22.3535C36.7612 22.3535 35.5856 23.5291 35.5856 24.9742C35.5856 26.4194 36.7612 27.5954 38.2063 27.5954C39.6515 27.5954 40.8275 26.4194 40.8275 24.9742C40.8275 23.5291 39.6515 22.3535 38.2063 22.3535ZM38.2063 25.8376C37.7307 25.8376 37.3434 25.4503 37.3434 24.9742C37.3434 24.4986 37.7307 24.1113 38.2063 24.1113C38.6824 24.1113 39.0697 24.4986 39.0697 24.9742C39.0697 25.4503 38.6824 25.8376 38.2063 25.8376Z" fill="#F6DB4B"/>
<path d="M36.1629 13.3222C37.608 13.3222 38.7836 12.1466 38.7836 10.7015C38.7836 9.25632 37.608 8.08032 36.1629 8.08032C34.7177 8.08032 33.5422 9.25632 33.5422 10.7015C33.5422 12.1466 34.7177 13.3222 36.1629 13.3222V13.3222ZM36.1629 9.83813C36.6385 9.83813 37.0258 10.2254 37.0258 10.7015C37.0258 11.1776 36.6385 11.5644 36.1629 11.5644C35.6868 11.5644 35.3 11.1771 35.3 10.7015C35.3 10.2254 35.6868 9.83813 36.1629 9.83813Z" fill="#F6DB4B"/>
<path d="M27.4411 20.3394C27.4411 21.7846 28.6171 22.9606 30.0623 22.9606C31.5074 22.9606 32.683 21.7846 32.683 20.3394C32.683 18.8943 31.5074 17.7188 30.0623 17.7188C28.6166 17.7188 27.4411 18.8943 27.4411 20.3394V20.3394ZM30.9251 20.3394C30.9251 20.8155 30.5379 21.2028 30.0618 21.2028C29.5862 21.2028 29.1989 20.8155 29.1989 20.3394C29.1989 19.8638 29.5862 19.4766 30.0618 19.4766C30.5379 19.4766 30.9251 19.8638 30.9251 20.3394Z" fill="#F6DB4B"/>
<path d="M10.5423 23.0566C9.09714 23.0566 7.9216 24.2322 7.9216 25.6773C7.9216 27.1225 9.09714 28.2985 10.5423 28.2985C11.9875 28.2985 13.163 27.1225 13.163 25.6773C13.163 24.2322 11.9875 23.0566 10.5423 23.0566ZM10.5423 26.5407C10.0662 26.5407 9.67941 26.1534 9.67941 25.6773C9.67941 25.2017 10.0662 24.8145 10.5423 24.8145C11.0179 24.8145 11.4052 25.2017 11.4052 25.6773C11.4052 26.1534 11.0179 26.5407 10.5423 26.5407Z" fill="#F6DB4B"/>
<path d="M20.5467 36.5617C21.9919 36.5617 23.1674 35.3861 23.1674 33.941C23.1674 32.4958 21.9914 31.3198 20.5467 31.3198C19.1016 31.3198 17.9256 32.4958 17.9256 33.941C17.9256 35.3861 19.1016 36.5617 20.5467 36.5617ZM20.5467 33.0776C21.0223 33.0776 21.4096 33.4649 21.4096 33.941C21.4096 34.4166 21.0223 34.8039 20.5467 34.8039C20.0706 34.8039 19.6834 34.4166 19.6834 33.941C19.6834 33.4649 20.0706 33.0776 20.5467 33.0776Z" fill="#F6DB4B"/>
<path d="M16.582 17.7215C16.8288 17.7215 17.0773 17.6862 17.3209 17.6148C18.7079 17.2092 19.5067 15.7513 19.1011 14.3638C18.9047 13.6922 18.4584 13.1365 17.8445 12.8005C17.2302 12.4641 16.5221 12.3872 15.8501 12.5835C14.463 12.9891 13.6642 14.4471 14.0698 15.8341C14.2662 16.5061 14.7125 17.0618 15.3264 17.3978C15.7178 17.6121 16.1476 17.7215 16.582 17.7215ZM16.3435 14.2709C16.4236 14.2475 16.5056 14.2356 16.5866 14.2356C16.7299 14.2356 16.8713 14.2718 17 14.3423C17.2023 14.453 17.3492 14.6357 17.4138 14.8572C17.5475 15.3141 17.2842 15.7943 16.8278 15.9275C16.6063 15.992 16.3733 15.9669 16.171 15.8561C15.9691 15.7453 15.8221 15.5627 15.7571 15.3411C15.6235 14.8847 15.8867 14.4045 16.3435 14.2709Z" fill="#F6DB4B"/>
<path d="M13.7906 35.2259C13.7906 33.7808 12.6146 32.6052 11.1694 32.6052C9.72427 32.6052 8.54874 33.7808 8.54874 35.2259C8.54874 36.6711 9.72427 37.8471 11.1694 37.8471C12.6146 37.8466 13.7906 36.6711 13.7906 35.2259ZM11.1694 36.0888C10.6938 36.0888 10.3065 35.7015 10.3065 35.2259C10.3065 34.7498 10.6938 34.3626 11.1694 34.3626C11.6455 34.3626 12.0328 34.7498 12.0328 35.2259C12.0328 35.7015 11.6455 36.0888 11.1694 36.0888Z" fill="#F6DB4B"/>
<path d="M35.7038 51.2526C37.1489 51.2526 38.3245 50.0771 38.3245 48.6319C38.3245 47.1868 37.1489 46.0112 35.7038 46.0112C34.2586 46.0112 33.0831 47.1868 33.0831 48.6319C33.0831 50.0771 34.2586 51.2526 35.7038 51.2526V51.2526ZM35.7038 47.769C36.1798 47.769 36.5667 48.1563 36.5667 48.6319C36.5667 49.108 36.1798 49.4948 35.7038 49.4948C35.2281 49.4948 34.8409 49.108 34.8409 48.6319C34.8409 48.1563 35.2281 47.769 35.7038 47.769Z" fill="#F6DB4B"/>
<path d="M30.0618 41.3305C31.507 41.3305 32.683 40.155 32.683 38.7098C32.683 37.2646 31.507 36.0891 30.0618 36.0891C28.6166 36.0891 27.4411 37.2646 27.4411 38.7098C27.4411 40.155 28.6166 41.3305 30.0618 41.3305V41.3305ZM30.0618 37.8465C30.5379 37.8465 30.9251 38.2337 30.9251 38.7098C30.9251 39.1854 30.5379 39.5727 30.0618 39.5727C29.5862 39.5727 29.1989 39.1854 29.1989 38.7098C29.1989 38.2337 29.5862 37.8465 30.0618 37.8465V37.8465Z" fill="#F6DB4B"/>
<path d="M46.7729 19.292C44.3674 19.292 42.4105 21.2494 42.4105 23.6549C42.4105 26.0605 44.3674 28.0179 46.7729 28.0179C49.1785 28.0179 51.1359 26.0605 51.1359 23.6549C51.1359 21.2494 49.1785 19.292 46.7729 19.292V19.292ZM46.7729 26.2601C45.3365 26.2601 44.1683 25.0914 44.1683 23.6549C44.1683 22.2185 45.3365 21.0498 46.7729 21.0498C48.2094 21.0498 49.3781 22.2185 49.3781 23.6549C49.3781 25.0914 48.2094 26.2601 46.7729 26.2601V26.2601Z" fill="#F6DB4B"/>
<path d="M60.0018 28.0824C59.4099 18.7093 54.4468 10.2026 46.6914 5.02808C46.1091 4.63989 45.3872 4.50256 44.701 4.6463C44.4841 3.98071 44.0066 3.4227 43.3804 3.11234C39.2198 1.04691 34.7387 0 30.0618 0C25.3853 0 20.9042 1.04691 16.7431 3.11234C16.1174 3.42316 15.6399 3.98071 15.4229 4.6463C14.7368 4.50256 14.0144 4.63989 13.4321 5.02808C5.68403 10.1981 0.714554 18.7015 0.122209 28.0824C0.0782634 28.7823 0.321336 29.4772 0.78917 30C0.320878 30.5228 0.0782634 31.2177 0.122209 31.9176C0.714097 41.2907 5.67717 49.7974 13.4326 54.9719C13.9938 55.3464 14.7088 55.5034 15.4229 55.3537C15.6399 56.0193 16.1174 56.5773 16.7436 56.8881C20.9042 58.9531 25.3853 60 30.0618 60C34.7387 60 39.2198 58.9531 43.3804 56.8877C44.7367 56.2148 45.2366 54.5251 44.4795 53.2137L31.5843 30.8789H41.0188V35.8667C41.0188 37.484 42.2937 38.9172 44.1252 38.9172C45.85 38.9172 47.2535 37.5188 47.2535 35.7999V34.9937C47.2535 34.7095 47.4847 34.4783 47.769 34.4783C48.0532 34.4783 48.2844 34.7095 48.2844 34.9937V41.2582C48.2844 42.6846 49.4448 43.8446 50.8712 43.8446C52.2972 43.8446 53.4576 42.6846 53.4576 41.2582V30.8789H57.3687C58.8876 30.8789 60.097 29.5953 60.0018 28.0824V28.0824ZM14.7116 48.295C13.732 47.4719 13.0705 46.1732 12.1261 45.049C11.1831 43.9265 10.0195 43.0531 9.37635 41.9417C8.74006 40.8426 8.56016 39.397 8.05525 38.0095C7.5572 36.6417 6.76344 35.4263 6.54005 34.1487C6.36656 33.1595 6.54051 32.0567 6.61741 30.8789H28.5397L17.5763 49.8674C16.5216 49.3474 15.4893 48.9482 14.7116 48.295V48.295ZM6.54005 25.8513C6.76344 24.5737 7.5572 23.3583 8.05525 21.9905C8.56062 20.6017 8.74006 19.1579 9.37635 18.0583C10.0191 16.9469 11.1836 16.073 12.1261 14.951C13.0714 13.8249 13.7315 12.5285 14.7116 11.705C15.4893 11.0518 16.522 10.6522 17.5767 10.1321L22.2015 18.143C22.4441 18.5632 22.982 18.7074 23.4022 18.4648C23.8224 18.2222 23.9666 17.6843 23.724 17.2641L19.0979 9.2514C20.0692 8.59863 20.9276 7.90375 21.8921 7.55264C23.079 7.12051 24.5334 7.19513 25.9941 6.9397C27.4223 6.6893 28.7553 6.11893 30.0618 6.11893C31.3687 6.11893 32.7017 6.6893 34.1299 6.9397C35.5906 7.19513 37.0454 7.12051 38.2319 7.55264C39.196 7.90375 40.0538 8.59818 41.0261 9.2514L30.0618 28.2422L25.7748 20.8163C25.5317 20.3961 24.9943 20.2519 24.5741 20.4945C24.1539 20.7376 24.0097 21.275 24.2523 21.6953L28.5397 29.1211H6.61787C6.54051 27.9433 6.36656 26.8405 6.54005 25.8513V25.8513ZM17.525 4.68658C21.4407 2.74338 25.659 1.75781 30.0618 1.75781C34.465 1.75781 38.6833 2.74338 42.599 4.68658C43.0458 4.90814 43.2101 5.46936 42.957 5.90744L41.9073 7.72522C40.9396 7.0665 40.0012 6.32629 38.833 5.90103C37.369 5.36819 35.8136 5.45013 34.4329 5.20798C33.0944 4.97406 31.6621 4.36111 30.0618 4.36111C28.4619 4.36111 27.0291 4.97406 25.691 5.20798C24.3109 5.45013 22.7549 5.36774 21.2906 5.90103C20.1228 6.32629 19.1867 7.06467 18.2167 7.72522C18.2089 7.71194 17.1675 5.90836 17.1675 5.90836C17.167 5.9079 17.167 5.90744 17.167 5.90744C16.9143 5.46982 17.0778 4.9086 17.525 4.68658ZM1.87682 28.1927C2.42705 19.4714 7.1118 11.3585 14.4081 6.49017C14.8233 6.21323 15.3927 6.34964 15.6463 6.78909L16.6955 8.60641C15.639 9.11957 14.5266 9.56497 13.5809 10.3592C12.3756 11.3718 11.6702 12.7611 10.7799 13.8208C9.89225 14.8773 8.6453 15.8116 7.85475 17.178C7.07106 18.5326 6.88063 20.078 6.40364 21.389C5.93535 22.6753 5.08299 23.9799 4.80833 25.5482C4.5973 26.7535 4.77125 27.9424 4.85548 29.1211H2.75481C2.2476 29.1211 1.84477 28.6954 1.87682 28.1927V28.1927ZM14.4081 53.5094C7.1118 48.6415 2.42705 40.5286 1.87682 31.8068C1.84477 31.3046 2.2476 30.8789 2.75526 30.8789H4.85548C4.77125 32.0595 4.5973 33.2465 4.80833 34.4518C5.08299 36.0201 5.93535 37.3251 6.40364 38.611C6.88063 39.9216 7.07151 41.4674 7.85475 42.822C8.6453 44.1879 9.89271 45.1227 10.7803 46.1797C11.6707 47.2394 12.3761 48.6287 13.5814 49.6408C14.5262 50.435 15.6381 50.88 16.6955 51.3936L15.6463 53.2104C15.3941 53.6481 14.8256 53.7881 14.4081 53.5094V53.5094ZM42.599 55.3134C38.6833 57.2566 34.465 58.2422 30.0618 58.2422C25.6585 58.2422 21.4407 57.2566 17.525 55.3134C17.0782 55.0914 16.9139 54.5306 17.167 54.0926L18.2167 52.2748C19.1848 52.934 20.1228 53.6737 21.2906 54.099C21.746 54.2651 22.2509 54.0303 22.4171 53.5735C22.5833 53.1175 22.348 52.6131 21.8921 52.4474C20.928 52.0963 20.0697 51.4018 19.0979 50.7481L30.0618 31.7578L41.0261 50.7481C40.0538 51.4018 39.196 52.0963 38.2319 52.4474C37.0449 52.8795 35.5906 52.8044 34.1299 53.0603C32.7017 53.3102 31.3687 53.8811 30.0618 53.8811C28.6683 53.8811 27.3001 53.2443 25.6613 53.0072C25.1806 52.9381 24.7352 53.2713 24.6656 53.7515C24.5965 54.2322 24.9298 54.678 25.41 54.7472C26.9247 54.966 28.369 55.6389 30.0618 55.6389C31.6621 55.6389 33.094 55.0264 34.4329 54.792C35.8126 54.5503 37.3686 54.6323 38.8334 54.099C40.0007 53.6742 40.9378 52.9353 41.9073 52.2748L42.957 54.0926C43.2096 54.5302 43.0462 55.0914 42.599 55.3134V55.3134ZM52.5787 29.1211C52.0935 29.1211 51.6998 29.5148 51.6998 30V41.2582C51.6998 41.7151 51.3281 42.0868 50.8712 42.0868C50.4144 42.0868 50.0427 41.7151 50.0427 41.2582V34.9937C50.0427 33.7399 49.0228 32.7205 47.769 32.7205C46.5156 32.7205 45.4957 33.7399 45.4957 34.9937V35.7999C45.4957 36.5007 44.9491 37.1594 44.0693 37.1594C43.3548 37.1594 42.7766 36.5813 42.7766 35.8667L42.7771 30.8789H49.4233C49.9086 30.8789 50.3022 30.4852 50.3022 30C50.3022 29.5148 49.9086 29.1211 49.4233 29.1211H31.5843L42.5473 10.1326C43.6006 10.6517 44.6342 11.0513 45.4124 11.705C46.3925 12.5281 47.053 13.8263 47.9978 14.951C48.9408 16.0735 50.1045 16.9464 50.7476 18.0583C51.3839 19.1574 51.5634 20.603 52.0687 21.9905C52.5668 23.3583 53.3601 24.5737 53.5839 25.8513C53.7574 26.8405 53.5835 27.9433 53.5061 29.1211H52.5787ZM57.3687 29.1211H55.2685C55.3527 27.9405 55.5267 26.7535 55.3157 25.5482C55.041 23.9799 54.1886 22.6749 53.7203 21.389C53.2438 20.0789 53.0525 18.5321 52.2692 17.178C51.4787 15.8116 50.2308 14.8764 49.3437 13.8203C48.4542 12.7611 47.7479 11.3713 46.5431 10.3592C45.5978 9.56543 44.4868 9.12048 43.4285 8.60641L44.4776 6.78909C44.7312 6.34964 45.3012 6.21323 45.7159 6.49017C53.0122 11.3585 57.6969 19.4714 58.2472 28.1927C58.2792 28.6963 57.8755 29.1211 57.3687 29.1211V29.1211Z" fill="#F6DB4B"/>
</g>
<defs>
<clipPath id="clip0">
<rect width="60" height="60" fill="white"/>
</clipPath>
</defs>
</svg>
