<svg width="60" height="60" viewBox="0 0 60 60" fill="none" xmlns="http://www.w3.org/2000/svg">
<g clip-path="url(#clip0)">
<path d="M25.574 12.2578C26.0616 12.2578 26.4568 11.8625 26.4568 11.375C26.4568 10.8874 26.0616 10.4922 25.574 10.4922C25.0865 10.4922 24.6913 10.8874 24.6913 11.375C24.6913 11.8625 25.0865 12.2578 25.574 12.2578Z" fill="#F6DB4B"/>
<path d="M34.5253 8.06612C35.0129 8.06612 35.4081 7.67088 35.4081 7.18333C35.4081 6.69578 35.0129 6.30054 34.5253 6.30054C34.0377 6.30054 33.6425 6.69578 33.6425 7.18333C33.6425 7.67088 34.0377 8.06612 34.5253 8.06612Z" fill="#F6DB4B"/>
<path d="M35.4081 15.4704C35.8956 15.4704 36.2908 15.0752 36.2908 14.5876C36.2908 14.1001 35.8956 13.7048 35.4081 13.7048C34.9205 13.7048 34.5253 14.1001 34.5253 14.5876C34.5253 15.0752 34.9205 15.4704 35.4081 15.4704Z" fill="#F6DB4B"/>
<path d="M43.8704 21.1967C44.8023 20.4625 45.4023 19.325 45.4023 18.0493C45.4023 16.4845 44.4992 15.092 43.1311 14.4364C43.1709 14.0192 43.1909 13.6025 43.1909 13.1909C43.1909 5.9174 37.2735 0 30 0C26.8826 0 23.8572 1.10784 21.4812 3.11931C21.109 3.43429 21.0628 3.99138 21.3779 4.36345C21.6928 4.73552 22.2498 4.78189 22.6219 4.4668C24.6795 2.72488 27.2998 1.76558 30 1.76558C36.2998 1.76558 41.4252 6.89094 41.4252 13.1909C41.4252 13.7511 41.3821 14.3234 41.2971 14.8919C41.2303 15.3399 41.5131 15.7658 41.952 15.8778C42.9439 16.1309 43.6367 17.0238 43.6367 18.0493C43.6367 19.2849 42.6315 20.2901 41.3959 20.2901C40.5159 20.2901 39.7136 19.7709 39.3519 18.9675C39.2094 18.6509 38.8943 18.4471 38.5469 18.4471C38.1996 18.4471 37.8845 18.6507 37.7419 18.9675C37.3802 19.7711 36.5778 20.2901 35.698 20.2901C34.818 20.2901 34.0157 19.7709 33.654 18.9675C33.5114 18.6509 33.1964 18.4471 32.8491 18.4471C32.5018 18.4471 32.1867 18.6507 32.0441 18.9675C31.6822 19.7711 30.8798 20.2903 30.0001 20.2903C29.1202 20.2903 28.3179 19.7711 27.9562 18.9676C27.8135 18.651 27.4985 18.4472 27.1512 18.4472C26.8039 18.4472 26.4889 18.6509 26.3462 18.9676C25.9844 19.7712 25.182 20.2904 24.3021 20.2904C23.4223 20.2904 22.62 19.7712 22.2583 18.9677C22.1156 18.6511 21.8007 18.4474 21.4533 18.4474C21.1061 18.4474 20.791 18.651 20.6483 18.9677C20.2865 19.7713 19.4841 20.2905 18.6044 20.2905C17.3687 20.2905 16.3634 19.2853 16.3634 18.0496C16.3634 17.0242 17.0562 16.1313 18.0481 15.8782C18.487 15.7663 18.7699 15.3403 18.703 14.8923C18.618 14.3238 18.5749 13.7515 18.5749 13.1912C18.5749 11.052 19.1696 8.96655 20.2944 7.16024C20.552 6.74639 20.4255 6.20189 20.0118 5.94423C19.5984 5.68669 19.0534 5.81299 18.7958 6.22684C17.4963 8.31352 16.8094 10.7218 16.8094 13.1912C16.8094 13.6028 16.8294 14.0195 16.8692 14.4368C15.5011 15.0924 14.5979 16.4849 14.5979 18.0496C14.5979 19.3253 15.198 20.4628 16.1298 21.1971C15.1851 21.9387 14.5979 23.0884 14.5979 24.35C14.5979 26.5592 16.3953 28.3566 18.6045 28.3566C18.8505 28.3566 19.0928 28.3328 19.3295 28.289L26.8603 57.414C27.2664 58.9849 28.4989 60 30 60C31.5012 60 32.7337 58.9849 33.1398 57.414L33.8333 54.7323C33.9554 54.2603 33.6717 53.7787 33.1997 53.6566C32.727 53.5347 32.2459 53.8184 32.124 54.2902L31.4305 56.9719C31.1898 57.9027 30.5338 58.2343 30 58.2343C29.4663 58.2343 28.8104 57.9027 28.5696 56.9719L27.6555 53.4368L33.98 47.1123L33.0338 50.7712C32.9118 51.2432 33.1955 51.7249 33.6675 51.8469C33.7416 51.8661 33.816 51.8753 33.8891 51.8753C34.2819 51.8753 34.6403 51.6112 34.7432 51.2132L40.6707 28.2887C40.9075 28.3325 41.1499 28.3562 41.3959 28.3562C43.6051 28.3562 45.4023 26.5589 45.4023 24.3497C45.4023 23.088 44.8151 21.9384 43.8704 21.1967V21.1967ZM27.1425 51.4528L25.4021 44.7222L37.8048 32.3195L36.7453 36.4168C36.7345 36.4266 36.7233 36.4358 36.7128 36.4462L32.8547 40.3044C32.5099 40.6491 32.5099 41.2081 32.8547 41.5528C33.0271 41.7251 33.2531 41.8114 33.479 41.8114C33.7049 41.8114 33.9309 41.7252 34.1033 41.5528L35.8757 39.7804L34.8507 43.7447L27.1425 51.4528ZM38.6663 28.988C38.616 29.0208 38.5682 29.0592 38.5241 29.1033L24.8891 42.7383L24.3133 40.5112L28.1274 36.697C28.4722 36.3522 28.4722 35.7932 28.1274 35.4486C27.7825 35.1038 27.2237 35.1038 26.8789 35.4486L23.8003 38.5272L20.9699 27.5805C21.1413 27.4551 21.3033 27.3167 21.4533 27.1651C22.1936 27.9131 23.2146 28.3564 24.3021 28.3564C25.3896 28.3564 26.4107 27.9131 27.1512 27.1651C27.3107 27.3262 27.4838 27.4722 27.6672 27.6036L24.5634 30.7074C24.2187 31.0522 24.2187 31.6111 24.5634 31.9558C24.7359 32.1281 24.9619 32.2144 25.1877 32.2144C25.4136 32.2144 25.6396 32.1282 25.812 31.9558L29.4505 28.3173C29.6312 28.3424 29.8146 28.3562 30.0001 28.3562C31.0876 28.3562 32.1086 27.913 32.8491 27.165C33.5894 27.913 34.6105 28.3562 35.698 28.3562C36.7855 28.3562 37.8066 27.913 38.5469 27.1651C38.6969 27.3166 38.859 27.455 39.0302 27.5803L38.6663 28.988ZM41.3959 26.5908C40.5159 26.5908 39.7136 26.0716 39.3519 25.2681C39.2093 24.9515 38.8943 24.7478 38.5469 24.7478C38.1996 24.7478 37.8846 24.9514 37.7419 25.2681C37.3802 26.0716 36.5778 26.5908 35.698 26.5908C34.818 26.5908 34.0157 26.0716 33.654 25.2681C33.5114 24.9515 33.1964 24.7478 32.8491 24.7478C32.5018 24.7478 32.1867 24.9514 32.0441 25.268C31.6822 26.0716 30.8798 26.5908 30.0001 26.5908C29.1202 26.5908 28.3179 26.0716 27.9562 25.2681C27.8135 24.9515 27.4985 24.7478 27.1512 24.7478C26.8039 24.7478 26.4889 24.9514 26.3462 25.268C25.9844 26.0716 25.182 26.5908 24.3021 26.5908C23.4223 26.5908 22.62 26.0716 22.2583 25.2681C22.1156 24.9515 21.8007 24.7478 21.4533 24.7478C21.1061 24.7478 20.791 24.9514 20.6483 25.268C20.2865 26.0716 19.4841 26.5908 18.6044 26.5908C17.3687 26.5908 16.3634 25.5855 16.3634 24.3498C16.3634 23.3244 17.0562 22.4314 18.0481 22.1784C18.1544 22.1513 18.2505 22.1052 18.3353 22.0457C18.4244 22.0516 18.5139 22.0557 18.6044 22.0557C19.6918 22.0557 20.7128 21.6124 21.4533 20.8644C22.1936 21.6124 23.2146 22.0557 24.3021 22.0557C25.3896 22.0557 26.4107 21.6124 27.1512 20.8644C27.8915 21.6124 28.9126 22.0557 30.0001 22.0557C31.0876 22.0557 32.1086 21.6124 32.8491 20.8644C33.5894 21.6124 34.6105 22.0557 35.698 22.0557C36.7855 22.0557 37.8066 21.6124 38.5469 20.8645C39.2873 21.6124 40.3084 22.0557 41.3959 22.0557C41.4864 22.0557 41.5758 22.0516 41.6648 22.0457C41.7497 22.105 41.8459 22.1512 41.952 22.1784C42.9439 22.4314 43.6367 23.3244 43.6367 24.3498C43.6367 25.5855 42.6315 26.5908 41.3959 26.5908Z" fill="#F6DB4B"/>
</g>
<defs>
<clipPath id="clip0">
<rect width="60" height="60" fill="white"/>
</clipPath>
</defs>
</svg>
