<svg width="60" height="60" viewBox="0 0 60 60" fill="none" xmlns="http://www.w3.org/2000/svg">
<path d="M6.82815 38.4336C6.00288 38.6928 5.31995 39.2791 4.93864 40.0555C4.0475 41.5969 3.45438 44.531 4.46061 48.1428C4.55496 48.4813 4.82278 48.7439 5.16318 48.8314C5.50358 48.919 5.86484 48.8183 6.11088 48.5673C6.35693 48.3163 6.45037 47.9531 6.35602 47.6146C5.62272 45.4645 5.7249 43.1173 6.64225 41.0391C6.77776 40.7335 7.01716 40.4857 7.31798 40.3398C7.6585 40.252 7.92628 39.9891 8.02045 39.6503C8.11463 39.3115 8.02089 38.9481 7.77455 38.6972C7.52821 38.4462 7.1667 38.3457 6.82618 38.4336H6.82815Z" fill="#F6DB4B"/>
<path d="M24.0983 35.9019C25.9996 35.9019 27.541 34.3605 27.541 32.4592C27.541 30.5579 25.9996 29.0166 24.0983 29.0166C22.197 29.0166 20.6557 30.5579 20.6557 32.4592C20.6557 34.3605 22.197 35.9019 24.0983 35.9019ZM24.0983 30.9838C24.9132 30.9838 25.5737 31.6444 25.5737 32.4592C25.5737 33.2741 24.9132 33.9346 24.0983 33.9346C23.2835 33.9346 22.6229 33.2741 22.6229 32.4592C22.6229 31.6444 23.2835 30.9838 24.0983 30.9838Z" fill="#F6DB4B"/>
<path d="M15.7377 12.2951C16.2809 12.2951 16.7213 11.8547 16.7213 11.3115C16.7213 10.7683 16.2809 10.3279 15.7377 10.3279C15.1945 10.3279 14.7541 10.7683 14.7541 11.3115C14.7541 11.8547 15.1945 12.2951 15.7377 12.2951Z" fill="#F6DB4B"/>
<path d="M22.623 40.8197C23.1662 40.8197 23.6066 40.3794 23.6066 39.8361C23.6066 39.2929 23.1662 38.8525 22.623 38.8525C22.0797 38.8525 21.6393 39.2929 21.6393 39.8361C21.6393 40.3794 22.0797 40.8197 22.623 40.8197Z" fill="#F6DB4B"/>
<path d="M23.6065 45.738C24.1498 45.738 24.5901 45.2976 24.5901 44.7544C24.5901 44.2111 24.1498 43.7708 23.6065 43.7708C23.0633 43.7708 22.6229 44.2111 22.6229 44.7544C22.6229 45.2976 23.0633 45.738 23.6065 45.738Z" fill="#F6DB4B"/>
<path d="M12.7869 15.2458C13.3301 15.2458 13.7705 14.8054 13.7705 14.2622C13.7705 13.7189 13.3301 13.2786 12.7869 13.2786C12.2437 13.2786 11.8033 13.7189 11.8033 14.2622C11.8033 14.8054 12.2437 15.2458 12.7869 15.2458Z" fill="#F6DB4B"/>
<path d="M58.6377 52.802L45.598 39.7614L48.182 16.5532C48.274 15.7189 48.0064 14.885 47.4462 14.26C46.886 13.635 46.0862 13.2782 45.2469 13.2788H40.5433L42.1288 8.99023L51.7121 2.28105C52.1384 1.96326 52.2349 1.36426 51.9301 0.928622C51.6253 0.49298 51.0295 0.378393 50.5849 0.669902L40.7488 7.55515C40.5847 7.66976 40.4595 7.83173 40.3898 8.01941L38.4462 13.2788H21.9216C21.2433 11.1321 20.1169 9.15405 18.6167 7.47548C17.8173 6.67648 16.8321 6.08841 15.7495 5.764C16.2122 4.77019 16.4654 3.69172 16.4931 2.5958C16.5136 2.05089 16.307 1.52192 15.9226 1.13515C15.5376 0.74664 15.0064 0.538749 14.46 0.562689C12.7914 0.551589 11.1774 1.15683 9.92753 2.26236C9.06757 3.19115 8.5176 4.36429 8.35376 5.61941C5.70589 3.2381 4.39179 3.0158 4.01605 3.0158C3.46449 3.01177 3.01024 3.44813 2.99212 3.99941C2.9828 4.25604 3.07786 4.50549 3.25561 4.69083C3.43335 4.87617 3.6786 4.98159 3.9354 4.98302C3.94622 4.98302 4.85409 5.14728 6.90982 6.96793C5.69489 7.14481 4.56267 7.68759 3.66392 8.524C2.55945 9.77306 1.95552 11.3862 1.96818 13.0535C1.94703 13.5862 2.14398 14.1045 2.51356 14.4888C2.88314 14.873 3.39341 15.09 3.92654 15.0896H4.00228C5.09847 15.0615 6.17718 14.8084 7.17146 14.346C7.49365 15.4303 8.08318 16.4162 8.88589 17.2132C10.7099 18.8369 12.8794 20.0242 15.2302 20.6853L16.2629 29.9755C15.5912 30.4738 15.0026 31.0754 14.519 31.7578C14.4061 31.6231 14.2859 31.4948 14.159 31.3732C13.1877 30.4996 12.0096 29.8882 10.7361 29.5968C8.93113 29.1512 5.95376 29.5791 3.77507 30.0197C3.15825 30.1444 2.66686 30.6105 2.50981 31.2199C2.35275 31.8292 2.55764 32.4748 3.03736 32.882C3.74753 33.485 4.58064 34.1499 5.4413 34.7578C3.76939 35.341 2.37566 36.5277 1.53343 38.0853C-0.138701 40.9811 -0.465258 45.1358 0.666873 49.2001C2.36163 55.2473 6.82327 59.5083 11.1216 59.5083C11.6495 59.5089 12.1753 59.4428 12.6865 59.3115C13.0543 59.2164 13.4128 59.0883 13.7577 58.9289C14.1017 59.0887 14.4596 59.2168 14.8269 59.3115C16.5948 59.7146 18.4495 59.4445 20.0292 58.5542C20.5849 59.1615 21.3699 59.508 22.1931 59.5092H40.7616C41.5747 59.5056 42.3504 59.1676 42.9069 58.5748C44.6102 59.1902 46.4072 59.5063 48.2183 59.5092H48.2744C52.0352 59.5114 55.6714 58.1606 58.5187 55.7037C58.9403 55.3393 59.1921 54.8165 59.2141 54.2597C59.2366 53.7155 59.0292 53.1868 58.6426 52.803L58.6377 52.802ZM45.8292 42.7751L38.4088 42.7663C38.5934 40.8408 39.3467 39.0138 40.5728 37.5178L45.8292 42.7751ZM45.8351 44.7424L40.5905 49.987C39.3601 48.4897 38.6003 46.6618 38.4069 44.7335L45.8351 44.7424ZM47.2259 46.1312L47.2357 53.5594C45.3072 53.3658 43.479 52.6061 41.9813 51.3758L47.2259 46.1312ZM49.2029 53.5584L49.1931 46.1371L54.4505 51.3945C52.9546 52.6205 51.1281 53.3744 49.2029 53.5604V53.5584ZM45.2469 15.246C45.5267 15.2465 45.7933 15.3653 45.9807 15.5732C46.1681 15.781 46.2588 16.0584 46.2305 16.3368L45.4967 22.927L42.8341 24.2607C40.8214 25.2517 38.4814 25.3365 36.4023 24.4938L39.8164 15.246H45.2469ZM34.5806 23.7394C33.5804 23.4014 32.5322 23.227 31.4764 23.223C29.958 23.2184 28.4597 23.5705 27.1023 24.2509C24.9008 25.3447 22.3142 25.3447 20.1128 24.2509L17.457 22.924L16.7223 16.3378C16.6933 16.0591 16.7838 15.7813 16.9713 15.5732C17.1588 15.365 17.4258 15.2461 17.7059 15.246H37.7193L34.5806 23.7394ZM11.3183 3.6522C12.2257 2.91554 13.3601 2.51584 14.5288 2.52105C14.542 3.69231 14.1442 4.83113 13.4046 5.73941C12.5023 6.48354 11.3644 6.88179 10.1951 6.86269C10.1757 5.69299 10.574 4.5547 11.3183 3.6522V3.6522ZM3.9354 13.1214C3.92326 11.9531 4.32069 10.8176 5.05868 9.91187C5.95946 9.16866 7.09561 8.77077 8.26327 8.78957C8.28262 9.95827 7.88667 11.0959 7.14589 12.0001C6.23991 12.738 5.1038 13.1348 3.9354 13.1214V13.1214ZM10.2738 15.8165C9.50962 15.0508 9.02647 14.0495 8.90261 12.9748C9.76115 11.7612 10.2248 10.3125 10.2305 8.82597C11.7114 8.81461 13.1533 8.34944 14.3616 7.49318C15.4427 7.61767 16.4504 8.10278 17.222 8.87023C18.3661 10.1601 19.2537 11.6564 19.8374 13.2788H17.7059C16.8664 13.2781 16.0664 13.6351 15.5061 14.2603C14.9459 14.8855 14.6785 15.7198 14.7708 16.5542L14.9921 18.542C13.2531 17.9576 11.6488 17.0309 10.2738 15.8165ZM16.5334 32.3981L16.8442 35.1945C16.4636 35.3706 16.0944 35.5704 15.7387 35.7925C15.4708 35.9611 15.1817 36.0934 14.879 36.186C15.0504 34.7893 15.6253 33.473 16.5334 32.3981V32.3981ZM10.2629 31.503C11.2031 31.7152 12.0754 32.1588 12.8006 32.7935C13.176 33.0663 13.396 33.504 13.3908 33.9679L13.382 33.9974C13.2924 34.3063 12.9 34.5876 12.3187 34.7538C11.3806 34.9764 10.4018 34.9612 9.47114 34.7096C7.75952 34.042 6.18766 33.0605 4.83638 31.8158C6.61208 31.3886 8.44991 31.2827 10.2629 31.503ZM15.3128 57.4043C14.9387 57.3059 14.579 57.1594 14.2426 56.9686C13.9474 56.8029 13.5877 56.8007 13.2905 56.9627C12.9468 57.155 12.5803 57.3034 12.1997 57.4043C8.49835 58.3506 4.17441 54.4348 2.56032 48.6699C1.56687 45.1063 1.81966 41.5171 3.23507 39.0699C3.88096 37.8327 5.00579 36.9145 6.3472 36.5292C7.38329 36.2798 8.47236 36.3737 9.45048 36.7968C9.88845 36.9736 10.309 37.191 10.7065 37.446C11.3352 37.8461 12.0375 38.1167 12.7721 38.2417V39.8263C12.7721 40.3695 13.2125 40.8099 13.7557 40.8099C14.299 40.8099 14.7393 40.3695 14.7393 39.8263V38.2417C15.4681 38.1182 16.1649 37.8507 16.7892 37.4548C16.8816 37.3968 16.977 37.3496 17.0715 37.2955L19.2354 56.7532C18.0607 57.4679 16.6554 57.7012 15.3128 57.4043V57.4043ZM22.1911 57.5411C21.6872 57.5441 21.2625 57.1656 21.2075 56.6647L17.7177 25.2532L19.2334 26.0106C21.9886 27.3807 25.2265 27.3807 27.9816 26.0106C29.8248 25.11 31.9449 24.9574 33.898 25.5847L23.6685 53.2653C23.48 53.7749 23.7403 54.3407 24.2498 54.5292C24.7594 54.7177 25.3253 54.4575 25.5138 53.9479L35.7177 26.3371C38.3054 27.3753 41.2133 27.2597 43.7105 26.0194L45.2341 25.2561L43.8167 37.9801L39.1672 33.3306C38.7774 32.953 38.253 32.7466 37.7105 32.7571C37.1532 32.7791 36.63 33.0313 36.2656 33.4535C30.8946 39.7149 31.2508 49.056 37.0829 54.8902C38.1273 55.9337 39.3126 56.826 40.6042 57.5411H22.1911ZM57.2282 54.2135C54.7231 56.3667 51.5275 57.5477 48.2242 57.5411H48.2174C46.4156 57.5439 44.6309 57.1923 42.9649 56.5063H42.96H42.9452C38.8499 54.8086 35.818 51.2488 34.7936 46.9354C33.7692 42.6221 34.8768 38.0792 37.7715 34.7214L39.176 36.126C37.3696 38.2536 36.3797 40.9549 36.3836 43.746C36.3966 50.2771 41.6882 55.5683 48.2193 55.5807C51.0107 55.5844 53.7122 54.5945 55.8403 52.7883L57.2282 54.2135Z" fill="#F6DB4B"/>
</svg>
