<svg width="60" height="60" viewBox="0 0 60 60" fill="none" xmlns="http://www.w3.org/2000/svg">
<path d="M50.6303 53.3661H9.36971C9.15467 53.3661 8.94844 53.2807 8.79638 53.1286C8.64432 52.9766 8.5589 52.7704 8.5589 52.5553V34.8723C8.5589 34.6573 8.64432 34.4511 8.79638 34.299C8.94844 34.1469 9.15467 34.0615 9.36971 34.0615C9.58475 34.0615 9.79098 34.1469 9.94304 34.299C10.0951 34.4511 10.1805 34.6573 10.1805 34.8723V51.7445H49.8194V34.8723C49.8194 34.6573 49.9049 34.4511 50.0569 34.299C50.209 34.1469 50.4152 34.0615 50.6303 34.0615C50.8453 34.0615 51.0515 34.1469 51.2036 34.299C51.3556 34.4511 51.4411 34.6573 51.4411 34.8723V52.5553C51.4411 52.7704 51.3556 52.9766 51.2036 53.1286C51.0515 53.2807 50.8453 53.3661 50.6303 53.3661Z" fill="#F6DB4B"/>
<path d="M32.5792 23.8948C32.3641 23.8948 32.1579 23.8094 32.0059 23.6573C31.8538 23.5053 31.7684 23.299 31.7684 23.084V12.8872H28.2316V23.084C28.2316 23.299 28.1462 23.5053 27.9941 23.6573C27.8421 23.8094 27.6358 23.8948 27.4208 23.8948C27.2058 23.8948 26.9995 23.8094 26.8475 23.6573C26.6954 23.5053 26.61 23.299 26.61 23.084V12.811C26.6104 12.4006 26.7736 12.0072 27.0638 11.717C27.354 11.4268 27.7474 11.2636 28.1578 11.2632H31.8413C32.2519 11.2634 32.6455 11.4265 32.9359 11.7167C33.2262 12.0069 33.3896 12.4005 33.39 12.811V23.084C33.39 23.299 33.3046 23.5053 33.1525 23.6573C33.0005 23.8094 32.7942 23.8948 32.5792 23.8948Z" fill="#F6DB4B"/>
<path d="M29.9999 10.6321C29.2122 10.6312 28.4571 10.318 27.9001 9.76103C27.3432 9.20408 27.0299 8.44894 27.0291 7.6613C27.0291 6.364 28.7553 3.02103 29.2839 2.02616C29.3598 1.90468 29.4653 1.8045 29.5905 1.73505C29.7158 1.66559 29.8567 1.62915 29.9999 1.62915C30.1431 1.62915 30.284 1.66559 30.4092 1.73505C30.5344 1.8045 30.64 1.90468 30.7158 2.02616C31.2445 3.02103 32.9707 6.36724 32.9707 7.6613C32.9698 8.44894 32.6566 9.20408 32.0996 9.76103C31.5427 10.318 30.7875 10.6312 29.9999 10.6321V10.6321ZM29.9999 4.19832C29.4017 5.2892 28.9482 6.45331 28.6507 7.6613C28.6507 8.01912 28.7928 8.36229 29.0458 8.61532C29.2989 8.86834 29.642 9.01048 29.9999 9.01048C30.3577 9.01048 30.7009 8.86834 30.9539 8.61532C31.2069 8.36229 31.3491 8.01912 31.3491 7.6613C31.0515 6.45331 30.598 5.2892 29.9999 4.19832V4.19832Z" fill="#F6DB4B"/>
<path d="M30 12.8919C29.785 12.8919 29.5787 12.8064 29.4267 12.6544C29.2746 12.5023 29.1892 12.2961 29.1892 12.081V9.82131C29.1892 9.60627 29.2746 9.40004 29.4267 9.24798C29.5787 9.09592 29.785 9.0105 30 9.0105C30.2151 9.0105 30.4213 9.09592 30.5734 9.24798C30.7254 9.40004 30.8108 9.60627 30.8108 9.82131V12.081C30.8108 12.2961 30.7254 12.5023 30.5734 12.6544C30.4213 12.8064 30.2151 12.8919 30 12.8919Z" fill="#F6DB4B"/>
<path d="M37.865 35.683C36.2416 35.7011 34.6689 35.1183 33.4493 34.0467C32.5015 33.2019 31.2762 32.7351 30.0066 32.7351C28.737 32.7351 27.5116 33.2019 26.5639 34.0467C25.3344 35.1024 23.7675 35.6829 22.147 35.6829C20.5265 35.6829 18.9596 35.1024 17.7301 34.0467C16.7813 33.2014 15.5549 32.7344 14.2842 32.7344C13.0134 32.7344 11.787 33.2014 10.8382 34.0467C10.1293 34.6345 9.32084 35.0906 8.45119 35.3935C8.12231 35.4963 7.77389 35.5206 7.43394 35.4642C7.094 35.4079 6.77202 35.2726 6.49389 35.0692C6.21903 34.8691 5.99569 34.6066 5.84231 34.3032C5.68892 33.9998 5.60989 33.6643 5.61173 33.3243V26.7673C5.61323 25.5756 6.08733 24.4332 6.93003 23.5907C7.77273 22.7481 8.91521 22.2742 10.1069 22.2729H49.8934C51.085 22.2742 52.2275 22.7481 53.0702 23.5907C53.9129 24.4332 54.387 25.5756 54.3885 26.7673V33.3243C54.3901 33.6646 54.3107 34.0004 54.1569 34.3039C54.0031 34.6075 53.7793 34.8701 53.5039 35.07C53.2268 35.2752 52.9049 35.4116 52.5647 35.468C52.2246 35.5244 51.8759 35.4991 51.5474 35.3943C50.6789 35.0915 49.8715 34.6357 49.1636 34.0484C48.2163 33.2039 46.9916 32.7373 45.7225 32.7373C44.4535 32.7373 43.2288 33.2039 42.2815 34.0484C41.0614 35.1195 39.4884 35.7017 37.865 35.683V35.683ZM30.0058 31.114C31.6291 31.0959 33.2019 31.6787 34.4215 32.7503C35.3694 33.595 36.5948 34.0618 37.8646 34.0618C39.1343 34.0618 40.3597 33.595 41.3077 32.7503C42.5362 31.6946 44.1024 31.1142 45.7221 31.1142C47.3419 31.1142 48.9081 31.6946 50.1366 32.7503C50.6995 33.225 51.3421 33.5962 52.0347 33.8465C52.1201 33.8743 52.2108 33.8814 52.2995 33.8673C52.3881 33.8532 52.4722 33.8183 52.5447 33.7654C52.6143 33.7156 52.6708 33.6496 52.7095 33.5733C52.7482 33.4969 52.7679 33.4123 52.7669 33.3267V26.7673C52.7658 26.0056 52.4627 25.2754 51.924 24.7369C51.3853 24.1983 50.6551 23.8954 49.8934 23.8946H10.1069C9.34516 23.8954 8.61489 24.1983 8.07621 24.7369C7.53754 25.2754 7.23442 26.0056 7.23335 26.7673V33.3243C7.23259 33.4097 7.25229 33.494 7.2908 33.5701C7.32931 33.6463 7.38551 33.7122 7.4547 33.7622C7.52743 33.8153 7.61176 33.8504 7.70072 33.8645C7.78968 33.8786 7.88073 33.8713 7.96632 33.8432C8.66007 33.5931 9.30386 33.2216 9.86767 32.7462C11.0878 31.6745 12.6611 31.0917 14.285 31.11C15.9088 31.0917 17.4821 31.6745 18.7023 32.7462C19.6504 33.591 20.8759 34.0578 22.1458 34.0578C23.4156 34.0578 24.6412 33.591 25.5893 32.7462C26.8098 31.6761 28.3827 31.0948 30.0058 31.114Z" fill="#F6DB4B"/>
<path d="M50.6303 45.6299C48.9533 45.6533 47.3229 45.0784 46.0314 44.0083C45.0046 43.1535 43.7108 42.6854 42.3747 42.6854C41.0386 42.6854 39.7447 43.1535 38.7179 44.0083C37.4163 45.0596 35.7937 45.633 34.1206 45.633C32.4475 45.633 30.8249 45.0596 29.5233 44.0083C28.4973 43.1537 27.2043 42.6857 25.869 42.6857C24.5337 42.6857 23.2407 43.1537 22.2147 44.0083C20.9236 45.078 19.2938 45.6529 17.6174 45.6299C15.9413 45.6534 14.3119 45.0784 13.0217 44.0083C12.0069 43.135 10.7069 42.6645 9.36818 42.6859C9.15314 42.6859 8.94691 42.6005 8.79485 42.4484C8.6428 42.2963 8.55737 42.0901 8.55737 41.8751C8.55737 41.66 8.6428 41.4538 8.79485 41.3017C8.94691 41.1497 9.15314 41.0643 9.36818 41.0643C11.0442 41.0408 12.6737 41.6158 13.9639 42.6859C14.9898 43.5405 16.2829 44.0085 17.6182 44.0085C18.9535 44.0085 20.2465 43.5405 21.2725 42.6859C22.5739 41.6347 24.1962 41.0614 25.869 41.0614C27.5418 41.0614 29.1641 41.6347 30.4655 42.6859C31.4918 43.5405 32.7851 44.0084 34.1206 44.0084C35.4561 44.0084 36.7494 43.5405 37.7758 42.6859C39.078 41.6346 40.7011 41.0613 42.3747 41.0613C44.0483 41.0613 45.6713 41.6346 46.9736 42.6859C47.9894 43.5596 49.2906 44.0302 50.6303 44.0083C50.8454 44.0083 51.0516 44.0937 51.2037 44.2458C51.3557 44.3978 51.4412 44.6041 51.4412 44.8191C51.4412 45.0342 51.3557 45.2404 51.2037 45.3924C51.0516 45.5445 50.8454 45.6299 50.6303 45.6299Z" fill="#F6DB4B"/>
<path d="M54.2254 58.3784H5.77456C5.55952 58.3784 5.35328 58.293 5.20123 58.141C5.04917 57.9889 4.96375 57.7827 4.96375 57.5676V54.2263C4.96439 53.5682 5.22608 52.9373 5.69139 52.472C6.15669 52.0067 6.7876 51.745 7.44564 51.7444H52.5543C53.2123 51.745 53.8432 52.0067 54.3085 52.472C54.7738 52.9373 55.0355 53.5682 55.0362 54.2263V57.5676C55.0362 57.7827 54.9508 57.9889 54.7987 58.141C54.6466 58.293 54.4404 58.3784 54.2254 58.3784ZM6.58537 56.7568H53.4146V54.2263C53.4143 53.9982 53.3236 53.7795 53.1624 53.6182C53.0011 53.4569 52.7824 53.3662 52.5543 53.366H7.44564C7.21754 53.3662 6.99886 53.4569 6.83757 53.6182C6.67629 53.7795 6.58558 53.9982 6.58537 54.2263V56.7568Z" fill="#F6DB4B"/>
</svg>
