<svg width="60" height="60" viewBox="0 0 60 60" fill="none" xmlns="http://www.w3.org/2000/svg">
<path d="M29.4797 20.1281C29.6095 20.1704 29.7417 20.1909 29.872 20.1909C30.2759 20.1909 30.6615 19.9944 30.9026 19.6444C31.2221 19.18 31.1996 18.5746 30.8461 18.1377C30.3285 17.4984 30.1248 16.9709 30.2232 16.525C30.3082 16.1405 30.396 15.743 32.4967 14.8767C32.6927 14.7957 32.8863 14.7159 33.073 14.6345C35.398 13.6201 37.2935 11.6964 38.2732 9.3566C39.0557 7.48816 39.1209 5.62184 38.4573 4.10145C37.269 1.37988 34.7066 0 30.8414 0H29.3387C28.8416 0 28.4031 0.280313 28.1944 0.731367C27.9859 1.1823 28.0562 1.6977 28.3779 2.07609C28.4939 2.21273 28.6146 2.35137 28.7371 2.49223C29.5594 3.43711 30.4098 4.41422 30.3694 5.35711C30.3397 6.05004 30.0321 6.77988 29.4286 7.58848C29.1386 7.97695 29.2185 8.52715 29.6072 8.81707C29.9958 9.10711 30.5459 9.02719 30.8358 8.63848C31.6571 7.53785 32.0784 6.48902 32.1236 5.43211C32.1853 3.99223 31.2841 2.77055 30.4209 1.75559H30.8415C33.9879 1.75559 35.9527 2.75262 36.8481 4.80363C37.3112 5.86465 37.2404 7.27676 36.6537 8.67809C35.8467 10.6051 34.2858 12.1895 32.3708 13.0248C32.1948 13.1017 32.0121 13.1769 31.8272 13.2532C30.5136 13.7948 28.8791 14.4689 28.5088 16.1462C28.3989 16.6441 28.4222 17.1449 28.5811 17.6554C28.235 17.3648 27.9376 17.0227 27.7085 16.6444C27.0158 15.5009 26.9177 14.0293 27.4525 12.804C27.6135 12.435 27.8377 12.0647 28.1378 11.672C28.4323 11.2867 28.3586 10.7358 27.9732 10.4414C27.588 10.147 27.0369 10.2207 26.7428 10.6059C26.3557 11.1124 26.0614 11.6017 25.8432 12.1018C25.084 13.8415 25.2233 15.9307 26.2068 17.5542C26.9296 18.7477 28.1225 19.6857 29.4797 20.1281V20.1281Z" fill="#F6DB4B"/>
<path d="M56.5209 52.0247H37.2929C39.0911 50.5987 40.6419 49.0835 41.9766 47.5258C43.0765 46.8042 44.8047 46.6969 46.6324 46.5856C49.06 46.4376 51.8116 46.2699 54.2507 44.6582C56.0498 43.4694 57.2936 41.8234 57.8478 39.898C58.3604 38.1178 58.2342 36.2009 57.4926 34.5004C56.3533 31.8877 53.633 29.6401 49.8898 29.8339C50.1332 28.1733 50.2127 26.8247 50.2333 25.9371C50.2447 25.4462 50.0619 24.9823 49.7186 24.631C49.3749 24.2792 48.9146 24.0855 48.4225 24.0855H18.5456C18.906 23.5387 19.223 22.8948 19.4657 22.1335C19.5589 21.8413 19.6287 21.5398 19.7095 21.244C19.7847 20.9683 19.8601 20.6925 19.9353 20.4168C20.0326 20.0604 19.9516 19.676 19.7084 19.3985C19.4498 19.1036 19.0709 18.9935 18.6958 19.0445C17.9334 19.1481 17.1537 19.2144 16.4082 19.3989C15.6025 19.5981 14.8122 19.9274 14.1201 20.3836C14.062 20.4219 13.5326 20.7539 13.5492 20.8051C13.4657 20.5473 13.3665 20.2946 13.2524 20.0488C13.0525 19.6182 12.8071 19.2092 12.5248 18.8275C11.846 17.9094 10.9583 17.2316 10.0914 16.5032C9.81135 16.2678 9.43447 16.1892 9.08373 16.2928C8.73275 16.3966 8.45935 16.6674 8.35236 17.0171C8.35236 17.0171 7.83826 18.6953 7.83732 18.6985C7.46549 19.9183 7.45881 21.2781 7.78822 22.5078C7.45142 22.469 7.1117 22.4561 6.77279 22.4686C5.86224 22.5023 4.87728 22.7144 4.05814 23.0996C4.05732 23.0999 2.46685 23.8478 2.46685 23.8478C2.13568 24.0034 1.90646 24.3124 1.85361 24.6744C1.80076 25.0364 1.93201 25.3982 2.20482 25.6421C2.31357 25.7393 2.42244 25.8366 2.53119 25.934C3.17935 26.5135 3.81322 27.111 4.56556 27.5596C5.40744 28.0616 6.34904 28.3974 7.32404 28.5122C6.72978 29.8362 6.60345 31.3054 6.84275 32.7297C6.94189 33.3199 7.09037 33.9021 7.21365 34.486C7.28924 34.844 7.53744 35.1379 7.87775 35.2724C8.19193 35.3966 8.61228 35.3535 8.90021 35.1523L9.72592 34.575C11.264 39.9675 14.5051 46.6351 21.3011 52.0248H14.7568C14.2719 52.0248 13.8789 52.4179 13.8789 52.9027C13.8789 53.3875 14.272 53.7805 14.7568 53.7805H56.2328V54.3791C56.2328 56.5104 54.4989 58.2444 52.3676 58.2444H7.63236C5.50107 58.2444 3.76717 56.5105 3.76717 54.3791V53.7805H10.7601C11.245 53.7805 11.6379 53.3875 11.6379 52.9027C11.6379 52.4179 11.2449 52.0248 10.7601 52.0248H3.47947C2.66994 52.0248 2.01134 52.6834 2.01134 53.493V54.3792C2.01134 57.4785 4.53287 60.0001 7.63236 60.0001H52.3679C55.4674 60.0001 57.9889 57.4785 57.9889 54.379V53.4927C57.9889 52.6833 57.3304 52.0247 56.5209 52.0247V52.0247ZM49.581 31.6266C51.9911 31.4056 54.6519 32.3779 55.8833 35.2021C56.4618 36.5288 56.5604 38.024 56.1606 39.4122C55.7235 40.9306 54.7285 42.238 53.2828 43.1932C51.2357 44.5458 48.7334 44.6984 46.5256 44.8329C45.614 44.8885 44.7246 44.9439 43.8869 45.0712C44.4899 44.2165 45.0363 43.3569 45.5309 42.4995C45.8171 42.4796 46.1013 42.4613 46.3798 42.4444C48.4734 42.3168 50.4508 42.1962 51.9635 41.1968C52.9546 40.5417 53.6177 39.6692 53.8806 38.6731C54.101 37.8393 54.0331 36.9463 53.6896 36.1587C53.272 35.2008 52.5479 34.5224 51.5956 34.197C51.1824 34.0557 50.7271 33.9848 50.2571 33.9848C49.8766 33.9848 49.4863 34.0313 49.1012 34.1249C49.0634 34.1341 49.0251 34.1453 48.9871 34.1551C49.2281 33.2712 49.423 32.4249 49.581 31.6266ZM46.5085 40.6773C47.269 39.1513 47.8761 37.6498 48.3598 36.2146C48.7622 36.0487 49.1464 35.9207 49.516 35.8308C51.2909 35.3994 51.9274 36.5097 52.0803 36.8603C52.2022 37.1396 52.7222 38.5907 50.9956 39.7317C49.9229 40.4407 48.2729 40.5686 46.5085 40.6773V40.6773ZM13.8759 22.9764C14.5386 22.1162 15.5901 21.3144 17.257 21.012L17.9795 20.9138L17.7875 21.6171C17.2552 23.2728 16.2869 24.2149 15.3226 24.7521C15.3104 24.7487 15.2978 24.745 15.2856 24.7416C15.0608 24.6798 14.8423 24.6325 14.631 24.5944C14.4829 24.0939 14.2134 23.6619 13.8644 23.3203C13.871 23.2095 13.8747 23.0944 13.8759 22.9764ZM14.5958 26.3781C14.6697 26.3952 14.7446 26.4139 14.8204 26.4346C16.405 26.87 17.5688 27.9189 18.2799 29.5521L18.541 30.2329L17.8122 30.207C15.5488 30.0256 14.2963 28.8426 13.6179 27.7675C14.0749 27.4074 14.4127 26.9222 14.5958 26.3781V26.3781ZM12.9478 25.0933C13.137 25.7339 12.7699 26.4093 12.1292 26.5985C11.4882 26.7878 10.8131 26.4205 10.6237 25.7799C10.4344 25.1391 10.8016 24.4639 11.4422 24.2745C11.5565 24.2407 11.6717 24.2247 11.785 24.2247C12.3084 24.2248 12.7922 24.5666 12.9478 25.0933ZM9.52177 19.1945L9.73529 18.4974L10.2935 18.9665C11.5611 20.1318 12.0158 21.3932 12.106 22.4868C11.7267 22.4451 11.3333 22.4761 10.9449 22.5908C10.5628 22.7038 10.2145 22.8883 9.91424 23.1321C9.2806 21.9646 9.14724 20.644 9.52177 19.1945V19.1945ZM8.44377 26.7859C7.34256 26.8585 6.01763 26.5923 4.67197 25.4928L4.12845 25.0068L4.78834 24.6965C6.35267 24.0442 7.67103 24.1464 8.6949 24.5086C8.75935 24.606 8.82439 24.6996 8.88955 24.7885C8.77986 25.2751 8.79463 25.7841 8.93959 26.2758C8.78314 26.4224 8.62541 26.5817 8.47025 26.7557C8.46135 26.7654 8.45256 26.7758 8.44377 26.7859V26.7859ZM9.31998 32.7165L8.72244 33.1343L8.57138 32.421C8.19943 30.1735 9.05174 28.6692 9.93463 27.7517C10.3836 28.1096 10.9306 28.3351 11.5099 28.39C11.5109 28.461 11.5109 28.5331 11.5092 28.6064C11.4697 30.2492 10.733 31.632 9.31998 32.7165ZM24.2547 52.0247C16.1929 46.478 12.7115 39.0735 11.2178 33.3835C12.3497 32.2505 12.8856 31.0214 13.1151 29.9352C13.5315 30.3538 14.0022 30.7174 14.5135 31.0129C15.1222 31.3644 15.7849 31.6169 16.4695 31.7742C17.2065 31.9437 17.9514 31.9689 18.7087 31.9958C19.0781 32.009 19.5548 32.087 19.9063 31.9564C20.4642 31.7491 20.7582 31.1052 20.5423 30.5479C20.4112 30.2094 20.2824 29.8701 20.1524 29.5312C19.847 28.7349 19.4885 27.9483 18.9766 27.2604C18.7305 26.9297 18.4565 26.6196 18.1558 26.3377C17.9674 26.161 17.7687 25.9951 17.5611 25.8414H48.4225C48.4285 25.8414 48.4464 25.8414 48.4628 25.8583C48.4785 25.8743 48.4782 25.8905 48.4781 25.8967C48.387 29.8252 47.0938 43.2508 34.341 52.0248H24.2547V52.0247Z" fill="#F6DB4B"/>
</svg>
